<svg preserveAspectRatio="none" width="100%" height="100%" overflow="visible" style="display: block;" viewBox="0 0 22 22" fill="none" xmlns="http://www.w3.org/2000/svg">
<g id="IcoPhone" clip-path="url(#clip0_0_200)">
<path id="Vector" d="M20.1667 15.51V18.26C20.1677 18.5153 20.1154 18.768 20.0131 19.0019C19.9109 19.2358 19.7609 19.4458 19.5727 19.6184C19.3846 19.791 19.1625 19.9224 18.9207 20.0041C18.6788 20.0859 18.4226 20.1163 18.1683 20.0933C15.3476 19.7868 12.6381 18.823 10.2575 17.2792C6.95565 15.3779 4.34772 12.4712 2.81417 8.98333C1.26363 6.58923 0.299483 3.86325 -2.38419e-07 1.02667C0.163503 0.688251 0.427065 0.408264 0.75499 0.224626C1.08292 0.0409874 1.45936 -0.0374281 1.83333 -2.38143e-07H4.58333C5.0282 -0.00437865 5.45948 0.153155 5.79678 0.443238C6.13409 0.733321 6.3544 1.13616 6.41667 1.57667C6.53274 2.45673 6.748 3.32083 7.05833 4.1525C7.18166 4.4806 7.20836 4.83717 7.13525 5.17997C7.06214 5.52278 6.89229 5.83743 6.64583 6.08667L6.33417 7.25083C7.65443 9.6053 9.59887 11.5497 11.9533 12.87L13.1175 12.1917C13.3667 11.9452 13.6814 11.7754 14.0242 11.7023C14.367 11.6291 14.7236 11.6558 15.0517 11.7792C15.8833 12.0895 16.7474 12.3048 17.6275 12.4208C17.9137 12.3009 18.2256 12.2556 18.5341 12.2892C18.8426 12.3227 19.1375 12.434 19.3912 12.6127C19.6449 12.7913 19.8492 13.0314 19.9848 13.3105C20.1204 13.5895 20.183 13.8985 20.1667 14.2083V15.51Z" stroke="var(--stroke-0, #2CBCC8)" stroke-width="1.375" stroke-linecap="round" stroke-linejoin="round"/>
</g>
<defs>
<clipPath id="clip0_0_200">
<rect width="22" height="22" fill="white"/>
</clipPath>
</defs>
</svg>
