<svg preserveAspectRatio="none" width="100%" height="100%" overflow="visible" style="display: block;" viewBox="0 0 15 15" fill="none" xmlns="http://www.w3.org/2000/svg">
<g id="Icon">
<path id="Vector" d="M12.5 6.25C12.5 9.37063 9.03812 12.6206 7.87562 13.6244C7.76733 13.7058 7.6355 13.7498 7.5 13.7498C7.3645 13.7498 7.23267 13.7058 7.12438 13.6244C5.96188 12.6206 2.5 9.37063 2.5 6.25C2.5 4.92392 3.02678 3.65215 3.96447 2.71447C4.90215 1.77678 6.17392 1.25 7.5 1.25C8.82608 1.25 10.0979 1.77678 11.0355 2.71447C11.9732 3.65215 12.5 4.92392 12.5 6.25Z" stroke="var(--stroke-0, #2CBCC8)" stroke-width="1.25" stroke-linecap="round" stroke-linejoin="round"/>
<path id="Vector_2" d="M7.5 8.125C8.53553 8.125 9.375 7.28553 9.375 6.25C9.375 5.21447 8.53553 4.375 7.5 4.375C6.46447 4.375 5.625 5.21447 5.625 6.25C5.625 7.28553 6.46447 8.125 7.5 8.125Z" stroke="var(--stroke-0, #2CBCC8)" stroke-width="1.25" stroke-linecap="round" stroke-linejoin="round"/>
</g>
</svg>
