<svg preserveAspectRatio="none" width="100%" height="100%" overflow="visible" style="display: block;" viewBox="0 0 11 11" fill="none" xmlns="http://www.w3.org/2000/svg">
<g id="Icon" clip-path="url(#clip0_0_205)">
<path id="Vector" d="M10.0833 7.755V9.13C10.0839 9.25765 10.0577 9.38399 10.0066 9.50095C9.95543 9.61791 9.88043 9.72289 9.78637 9.80919C9.69231 9.89548 9.58126 9.96118 9.46034 10.0021C9.33942 10.043 9.2113 10.0582 9.08417 10.0467C7.6738 9.89342 6.31904 9.41148 5.12875 8.63958C4.02134 7.93589 3.08245 6.997 2.37875 5.88958C1.60416 4.69389 1.12211 3.33254 0.971667 1.91583C0.960213 1.78909 0.975276 1.66135 1.0159 1.54074C1.05652 1.42014 1.1218 1.30932 1.2076 1.21533C1.2934 1.12134 1.39783 1.04624 1.51424 0.994823C1.63065 0.943403 1.75649 0.916786 1.88375 0.916667H3.25875C3.48118 0.914477 3.69682 0.993244 3.86547 1.13829C4.03413 1.28333 4.14429 1.48475 4.17542 1.705C4.23345 2.14503 4.34108 2.57708 4.49625 2.99292C4.55792 3.15697 4.57126 3.33525 4.53471 3.50665C4.49815 3.67805 4.41323 3.83538 4.29 3.96L3.70792 4.54208C4.36038 5.68954 5.31046 6.63962 6.45792 7.29208L7.04 6.71C7.16462 6.58677 7.32195 6.50185 7.49335 6.46529C7.66475 6.42874 7.84303 6.44208 8.00708 6.50375C8.42292 6.65892 8.85497 6.76655 9.295 6.82458C9.51764 6.85599 9.72098 6.96814 9.86633 7.13969C10.0117 7.31123 10.0889 7.53022 10.0833 7.755Z" stroke="var(--stroke-0, #2CBCC8)" stroke-width="0.916667" stroke-linecap="round" stroke-linejoin="round"/>
</g>
<defs>
<clipPath id="clip0_0_205">
<rect width="11" height="11" fill="white"/>
</clipPath>
</defs>
</svg>
