<svg preserveAspectRatio="none" width="100%" height="100%" overflow="visible" style="display: block;" viewBox="0 0 22 22" fill="none" xmlns="http://www.w3.org/2000/svg">
<g id="IcoClipboard">
<path id="Vector" d="M8.25 4.58333H6.41667C5.93044 4.58333 5.46412 4.77649 5.1203 5.1203C4.77649 5.46412 4.58333 5.93044 4.58333 6.41667V17.4167C4.58333 17.9029 4.77649 18.3692 5.1203 18.713C5.46412 19.0568 5.93044 19.25 6.41667 19.25H15.5833C16.0696 19.25 16.5359 19.0568 16.8797 18.713C17.2235 18.3692 17.4167 17.9029 17.4167 17.4167V6.41667C17.4167 5.93044 17.2235 5.46412 16.8797 5.1203C16.5359 4.77649 16.0696 4.58333 15.5833 4.58333H13.75" stroke="var(--stroke-0, #2CBCC8)" stroke-width="1.375" stroke-linecap="round" stroke-linejoin="round"/>
<path id="Vector_2" d="M11.9167 2.75H10.0833C9.07081 2.75 8.25 3.57081 8.25 4.58333C8.25 5.59586 9.07081 6.41667 10.0833 6.41667H11.9167C12.9292 6.41667 13.75 5.59586 13.75 4.58333C13.75 3.57081 12.9292 2.75 11.9167 2.75Z" stroke="var(--stroke-0, #2CBCC8)" stroke-width="1.375" stroke-linecap="round" stroke-linejoin="round"/>
</g>
</svg>
