<svg preserveAspectRatio="none" width="100%" height="100%" overflow="visible" style="display: block;" viewBox="0 0 13 13" fill="none" xmlns="http://www.w3.org/2000/svg">
<g id="Icon" clip-path="url(#clip0_0_207)">
<path id="Vector" d="M7.87367 11.7466C7.89425 11.7979 7.93002 11.8416 7.97619 11.872C8.02236 11.9024 8.07671 11.9179 8.13196 11.9165C8.1872 11.9151 8.24069 11.8968 8.28524 11.8641C8.32979 11.8314 8.36328 11.7859 8.38121 11.7336L11.902 1.44192C11.9194 1.39392 11.9227 1.34198 11.9116 1.29218C11.9005 1.24237 11.8754 1.19675 11.8393 1.16067C11.8032 1.12459 11.7576 1.09953 11.7078 1.08842C11.658 1.07731 11.6061 1.08062 11.5581 1.09796L1.26642 4.61879C1.21414 4.63672 1.16861 4.67021 1.13591 4.71476C1.10322 4.75931 1.08494 4.8128 1.08353 4.86804C1.08211 4.92329 1.09763 4.97764 1.128 5.02381C1.15837 5.06998 1.20213 5.10575 1.25342 5.12633L5.54883 6.84883C5.68462 6.9032 5.808 6.9845 5.91151 7.08783C6.01503 7.19117 6.09656 7.31439 6.15117 7.45008L7.87367 11.7466Z" stroke="var(--stroke-0, #2CBCC8)" stroke-width="1.08333" stroke-linecap="round" stroke-linejoin="round"/>
<path id="Vector_2" d="M11.8376 1.16296L5.91175 7.08825" stroke="var(--stroke-0, #2CBCC8)" stroke-width="1.08333" stroke-linecap="round" stroke-linejoin="round"/>
</g>
<defs>
<clipPath id="clip0_0_207">
<rect width="13" height="13" fill="white"/>
</clipPath>
</defs>
</svg>
