<svg preserveAspectRatio="none" width="100%" height="100%" overflow="visible" style="display: block;" viewBox="0 0 18 18" fill="none" xmlns="http://www.w3.org/2000/svg">
<g id="Icon" clip-path="url(#clip0_0_195)">
<path id="Vector" d="M10.902 16.2645C10.9305 16.3355 10.98 16.3961 11.044 16.4382C11.1079 16.4802 11.1831 16.5017 11.2596 16.4997C11.3361 16.4978 11.4102 16.4725 11.4719 16.4272C11.5336 16.3819 11.5799 16.3189 11.6047 16.2465L16.4797 1.9965C16.5038 1.93005 16.5083 1.85813 16.493 1.78917C16.4776 1.7202 16.4429 1.65705 16.3929 1.60708C16.343 1.55712 16.2798 1.52242 16.2108 1.50704C16.1419 1.49167 16.07 1.49625 16.0035 1.52025L1.7535 6.39525C1.68112 6.42007 1.61807 6.46644 1.5728 6.52813C1.52754 6.58982 1.50223 6.66388 1.50027 6.74037C1.49831 6.81686 1.5198 6.89212 1.56184 6.95605C1.60389 7.01997 1.66449 7.06951 1.7355 7.098L7.683 9.483C7.87102 9.55828 8.04184 9.67085 8.18517 9.81392C8.32851 9.957 8.44139 10.1276 8.517 10.3155L10.902 16.2645Z" stroke="var(--stroke-0, white)" stroke-width="1.5" stroke-linecap="round" stroke-linejoin="round"/>
<path id="Vector_2" d="M16.3905 1.61025L8.1855 9.8145" stroke="var(--stroke-0, white)" stroke-width="1.5" stroke-linecap="round" stroke-linejoin="round"/>
</g>
<defs>
<clipPath id="clip0_0_195">
<rect width="18" height="18" fill="white"/>
</clipPath>
</defs>
</svg>
