<svg preserveAspectRatio="none" width="100%" height="100%" overflow="visible" style="display: block;" viewBox="0 0 11 11" fill="none" xmlns="http://www.w3.org/2000/svg">
<g id="Icon">
<path id="Vector" d="M9.16667 4.58333C9.16667 6.87179 6.62796 9.25513 5.77546 9.99121C5.69604 10.0509 5.59937 10.0832 5.5 10.0832C5.40063 10.0832 5.30396 10.0509 5.22454 9.99121C4.37204 9.25513 1.83333 6.87179 1.83333 4.58333C1.83333 3.61087 2.21964 2.67824 2.90728 1.99061C3.59491 1.30298 4.52754 0.916667 5.5 0.916667C6.47246 0.916667 7.40509 1.30298 8.09273 1.99061C8.78036 2.67824 9.16667 3.61087 9.16667 4.58333Z" stroke="var(--stroke-0, #2CBCC8)" stroke-width="0.916667" stroke-linecap="round" stroke-linejoin="round"/>
<path id="Vector_2" d="M5.5 5.95833C6.25939 5.95833 6.875 5.34272 6.875 4.58333C6.875 3.82394 6.25939 3.20833 5.5 3.20833C4.74061 3.20833 4.125 3.82394 4.125 4.58333C4.125 5.34272 4.74061 5.95833 5.5 5.95833Z" stroke="var(--stroke-0, #2CBCC8)" stroke-width="0.916667" stroke-linecap="round" stroke-linejoin="round"/>
</g>
</svg>
