<svg preserveAspectRatio="none" width="100%" height="100%" overflow="visible" style="display: block;" viewBox="0 0 14.1241 16" fill="none" xmlns="http://www.w3.org/2000/svg">
<g id="logos:tiktok-icon" clip-path="url(#clip0_0_239)">
<path id="Vector" d="M10.4672 5.76112C11.4977 6.4974 12.7602 6.93061 14.1237 6.93061V4.30827C13.8656 4.30837 13.6082 4.28144 13.3558 4.22793V6.2921C11.9924 6.2921 10.7301 5.85894 9.6994 5.12272V10.4742C9.6994 13.1514 7.52804 15.3214 4.84975 15.3214C3.85041 15.3214 2.92153 15.0194 2.14994 14.5015C3.0306 15.4016 4.25874 15.9599 5.61742 15.9599C8.29593 15.9599 10.4673 13.7898 10.4673 11.1126V5.76112H10.4672ZM11.4145 3.11549C10.8879 2.54043 10.5421 1.79726 10.4672 0.975631V0.638362H9.73957C9.92274 1.68261 10.5476 2.57475 11.4145 3.11549ZM3.84396 12.4472C3.54969 12.0617 3.39063 11.5899 3.39138 11.1049C3.39138 9.88051 4.38454 8.88774 5.60986 8.88774C5.83818 8.88762 6.06515 8.92266 6.2828 8.99163V6.31064C6.02845 6.27582 5.77179 6.26098 5.51524 6.26644V8.35318C5.29748 8.28419 5.07039 8.24916 4.84197 8.24934C3.6167 8.24934 2.6236 9.242 2.6236 10.4666C2.6236 11.3324 3.11998 12.0821 3.84396 12.4472Z" fill="var(--fill-0, #FF004F)"/>
<path id="Vector_2" d="M9.69942 5.12267C10.7302 5.85889 11.9924 6.29204 13.3558 6.29204V4.22788C12.5948 4.06584 11.921 3.66838 11.4145 3.11549C10.5475 2.57469 9.92276 1.68256 9.73958 0.638362H7.82825V11.1125C7.82389 12.3335 6.83244 13.3222 5.60976 13.3222C4.88932 13.3222 4.24921 12.979 3.84386 12.4472C3.12 12.0821 2.62356 11.3324 2.62356 10.4666C2.62356 9.24217 3.61666 8.2494 4.84193 8.2494C5.07669 8.2494 5.30295 8.28592 5.5152 8.35323V6.2665C2.88391 6.32084 0.767777 8.4697 0.767777 11.1125C0.767777 12.4318 1.29473 13.6278 2.15001 14.5016C2.9216 15.0194 3.85043 15.3215 4.84982 15.3215C7.52816 15.3215 9.69947 13.1513 9.69947 10.4742L9.69942 5.12267Z" fill="var(--fill-0, black)"/>
<path id="Vector_3" d="M13.3559 4.22786V3.66985C12.6696 3.67084 11.9969 3.47875 11.4146 3.11553C11.93 3.67951 12.6087 4.06843 13.3559 4.22797M9.73959 0.638345C9.72214 0.53857 9.70874 0.438129 9.69942 0.337269V0H7.0603V10.4742C7.05611 11.6952 6.06466 12.6839 4.84193 12.6839C4.4953 12.6844 4.1534 12.6034 3.84386 12.4473C4.24921 12.979 4.88932 13.3222 5.60977 13.3222C6.83239 13.3222 7.82394 12.3336 7.82825 11.1126V0.6384L9.73959 0.638345ZM5.51537 6.26648V5.67233C5.29483 5.64222 5.07251 5.62714 4.84993 5.6272C2.17131 5.6272 0 7.79735 0 10.4742C0 12.1525 0.853352 13.6316 2.15012 14.5016C1.29484 13.6278 0.76789 12.4317 0.76789 11.1125C0.76789 8.46974 2.88397 6.32083 5.51537 6.26648Z" fill="var(--fill-0, #00F2EA)"/>
</g>
<defs>
<clipPath id="clip0_0_239">
<rect width="14.1241" height="16" fill="white"/>
</clipPath>
</defs>
</svg>
