<svg preserveAspectRatio="none" width="100%" height="100%" overflow="visible" style="display: block;" viewBox="0 0 24 24" fill="none" xmlns="http://www.w3.org/2000/svg">
<g id="proicons:tiktok">
<path id="Vector" d="M20.2 10.1C20.2 10.32 20.02 10.501 19.8 10.49C18.6246 10.4311 17.4766 10.1135 16.438 9.56C16.157 9.41 15.8 9.605 15.8 9.924V15.5C15.7999 16.6696 15.458 17.8137 14.8163 18.7916C14.1745 19.7695 13.261 20.5385 12.188 21.004C11.115 21.4695 9.92932 21.6112 8.77682 21.4118C7.62432 21.2123 6.55525 20.6803 5.70109 19.8813C4.84694 19.0823 4.24495 18.051 3.96917 16.9144C3.69339 15.7777 3.75584 14.5852 4.14885 13.4836C4.54185 12.382 5.24828 11.4192 6.18123 10.7138C7.11418 10.0083 8.23297 9.59098 9.4 9.513C9.45215 9.51024 9.50432 9.51826 9.55323 9.53656C9.60215 9.55486 9.64677 9.58305 9.6843 9.61937C9.72184 9.65568 9.75148 9.69934 9.77139 9.74763C9.79129 9.79591 9.80103 9.84778 9.8 9.9V12.7C9.8 12.92 9.62 13.097 9.402 13.133C8.95069 13.2089 8.53048 13.4122 8.19092 13.7191C7.85136 14.0259 7.60661 14.4234 7.48553 14.8648C7.36444 15.3061 7.37207 15.7729 7.5075 16.21C7.64294 16.6472 7.90055 17.0365 8.24994 17.3321C8.59934 17.6276 9.02597 17.8172 9.47952 17.8783C9.93307 17.9394 10.3946 17.8695 10.8098 17.677C11.225 17.4844 11.5764 17.1772 11.8228 16.7915C12.0691 16.4057 12.2 15.9577 12.2 15.5V2.9C12.2 2.79391 12.2421 2.69217 12.3172 2.61716C12.3922 2.54214 12.4939 2.5 12.6 2.5H15.4C15.5069 2.50273 15.609 2.54522 15.6863 2.61919C15.7636 2.69315 15.8106 2.79328 15.818 2.9C15.9115 3.92472 16.3612 4.88426 17.0889 5.61177C17.8166 6.33928 18.7763 6.78874 19.801 6.882C20.021 6.902 20.201 7.079 20.201 7.3L20.2 10.1Z" stroke="var(--stroke-0, white)" stroke-width="1.5" stroke-linecap="round" stroke-linejoin="round"/>
</g>
</svg>
