<svg preserveAspectRatio="none" width="100%" height="100%" overflow="visible" style="display: block;" viewBox="0 0 22 23.1917" fill="none" xmlns="http://www.w3.org/2000/svg">
<g id="Brain">
<path id="Vector" d="M8.70833 3.025C8.70833 2.41721 8.94978 1.83432 9.37955 1.40455C9.80932 0.974776 10.3922 0.733333 11 0.733333C11.6078 0.733333 12.1907 0.974776 12.6205 1.40455C13.0502 1.83432 13.2917 2.41721 13.2917 3.025V3.48333C13.2917 4.09112 13.0502 4.67402 12.6205 5.10379C12.1907 5.53356 11.6078 5.775 11 5.775C10.3922 5.775 9.80932 5.53356 9.37955 5.10379C8.94978 4.67402 8.70833 4.09112 8.70833 3.48333V3.025Z" stroke="var(--stroke-0, #2CBCC8)" stroke-width="1.46667" stroke-linecap="round" stroke-linejoin="round"/>
<path id="Vector_2" d="M11 3.69427V5.98594M8.70833 5.98594C7.61432 5.98594 6.56511 6.42053 5.79152 7.19412C5.01793 7.96771 4.58333 9.01692 4.58333 10.1109V11.0276C4.58386 11.6073 4.70659 12.1805 4.94351 12.7096C5.18043 13.2387 5.52622 13.7119 5.95833 14.0984V18.8193C5.95833 19.0624 6.05491 19.2955 6.22682 19.4675C6.39873 19.6394 6.63188 19.7359 6.875 19.7359H15.125C15.3681 19.7359 15.6013 19.6394 15.7732 19.4675C15.9451 19.2955 16.0417 19.0624 16.0417 18.8193V14.0984C16.4738 13.7119 16.8196 13.2387 17.0565 12.7096C17.2934 12.1805 17.4161 11.6073 17.4167 11.0276V10.1109C17.4167 9.56924 17.31 9.03284 17.1027 8.53237C16.8954 8.0319 16.5915 7.57716 16.2085 7.19412C15.8254 6.81108 15.3707 6.50724 14.8702 6.29993C14.3698 6.09263 13.8334 5.98594 13.2917 5.98594H8.70833Z" stroke="var(--stroke-0, #2CBCC8)" stroke-linecap="round" stroke-linejoin="round"/>
</g>
</svg>
