<svg preserveAspectRatio="none" width="100%" height="100%" overflow="visible" style="display: block;" viewBox="0 0 16.3333 16.6667" fill="none" xmlns="http://www.w3.org/2000/svg">
<g id="Frame 1984078323">
<path id="Vector" d="M2.5 0.833333C2.05797 0.833333 1.63405 1.00893 1.32149 1.32149C1.00893 1.63405 0.833333 2.05797 0.833333 2.5V7.5C0.833333 7.94203 1.00893 8.36595 1.32149 8.67851C1.63405 8.99107 2.05797 9.16667 2.5 9.16667C2.72101 9.16667 2.93298 9.25446 3.08926 9.41074C3.24554 9.56702 3.33333 9.77899 3.33333 10V10.8333C3.33333 11.2754 3.15774 11.6993 2.84518 12.0118C2.53262 12.3244 2.10869 12.5 1.66667 12.5C1.44565 12.5 1.23369 12.5878 1.07741 12.7441C0.921131 12.9004 0.833333 13.1123 0.833333 13.3333V15C0.833333 15.221 0.921131 15.433 1.07741 15.5893C1.23369 15.7455 1.44565 15.8333 1.66667 15.8333C2.99275 15.8333 4.26452 15.3065 5.2022 14.3689C6.13988 13.4312 6.66667 12.1594 6.66667 10.8333V2.5C6.66667 2.05797 6.49107 1.63405 6.17851 1.32149C5.86595 1.00893 5.44203 0.833333 5 0.833333H2.5Z" stroke="var(--stroke-0, #2CBCC8)" stroke-opacity="0.4" stroke-width="1.66667" stroke-linecap="round" stroke-linejoin="round"/>
<path id="Vector_2" d="M11.3333 0.833333C10.8913 0.833333 10.4674 1.00893 10.1548 1.32149C9.84226 1.63405 9.66667 2.05797 9.66667 2.5V7.5C9.66667 7.94203 9.84226 8.36595 10.1548 8.67851C10.4674 8.99107 10.8913 9.16667 11.3333 9.16667C11.5543 9.16667 11.7663 9.25446 11.9226 9.41074C12.0789 9.56702 12.1667 9.77899 12.1667 10V10.8333C12.1667 11.2754 11.9911 11.6993 11.6785 12.0118C11.3659 12.3244 10.942 12.5 10.5 12.5C10.279 12.5 10.067 12.5878 9.91074 12.7441C9.75446 12.9004 9.66667 13.1123 9.66667 13.3333V15C9.66667 15.221 9.75446 15.433 9.91074 15.5893C10.067 15.7455 10.279 15.8333 10.5 15.8333C11.8261 15.8333 13.0979 15.3065 14.0355 14.3689C14.9732 13.4312 15.5 12.1594 15.5 10.8333V2.5C15.5 2.05797 15.3244 1.63405 15.0118 1.32149C14.6993 1.00893 14.2754 0.833333 13.8333 0.833333H11.3333Z" stroke="var(--stroke-0, #2CBCC8)" stroke-opacity="0.4" stroke-width="1.66667" stroke-linecap="round" stroke-linejoin="round"/>
</g>
</svg>
