<svg preserveAspectRatio="none" width="100%" height="100%" overflow="visible" style="display: block;" viewBox="0 0 19.2857 19.2857" fill="none" xmlns="http://www.w3.org/2000/svg">
<g id="Group">
<path id="Vector" d="M14.2143 1.64286C16.9731 3.21657 18.7857 6.23943 18.7857 9.64286C18.7857 11.4511 18.2495 13.2188 17.2449 14.7224C16.2402 16.2259 14.8123 17.3978 13.1417 18.0898C11.471 18.7818 9.63272 18.9628 7.85918 18.61C6.08564 18.2573 4.45654 17.3865 3.17789 16.1078C1.89923 14.8292 1.02846 13.2001 0.675682 11.4265C0.322903 9.653 0.503962 7.81468 1.19596 6.14404C1.88796 4.4734 3.05983 3.04548 4.56336 2.04085C6.0669 1.03622 7.83458 0.5 9.64286 0.5" stroke="var(--stroke-0, #5F6B73)" stroke-linecap="round" stroke-linejoin="round"/>
<path id="Vector_2" d="M14.2143 6.21429V1.64286H18.7857" stroke="var(--stroke-0, #5F6B73)" stroke-linecap="round" stroke-linejoin="round"/>
</g>
</svg>
