<svg preserveAspectRatio="none" width="100%" height="100%" overflow="visible" style="display: block;" viewBox="0 0 22 22" fill="none" xmlns="http://www.w3.org/2000/svg">
<g id="Icon" clip-path="url(#clip0_0_705)">
<path id="Vector" d="M11.7608 1.99833C11.522 1.88939 11.2625 1.83301 11 1.83301C10.7375 1.83301 10.478 1.88939 10.2392 1.99833L2.38333 5.57333C2.22067 5.64506 2.08237 5.76253 1.98528 5.91145C1.88819 6.06037 1.8365 6.23431 1.8365 6.41208C1.8365 6.58986 1.88819 6.7638 1.98528 6.91271C2.08237 7.06163 2.22067 7.17911 2.38333 7.25083L10.2483 10.835C10.4872 10.9439 10.7466 11.0003 11.0092 11.0003C11.2717 11.0003 11.5312 10.9439 11.77 10.835L19.635 7.26C19.7977 7.18828 19.936 7.0708 20.0331 6.92188C20.1301 6.77296 20.1818 6.59902 20.1818 6.42125C20.1818 6.24348 20.1301 6.06954 20.0331 5.92062C19.936 5.7717 19.7977 5.65422 19.635 5.5825L11.7608 1.99833Z" stroke="var(--stroke-0, #7EE8F0)" stroke-width="1.83333" stroke-linecap="round" stroke-linejoin="round"/>
<path id="Vector_2" d="M1.83333 11C1.8329 11.1753 1.88276 11.3471 1.97699 11.495C2.07123 11.6428 2.20588 11.7605 2.365 11.8342L10.2483 15.4183C10.4859 15.5259 10.7438 15.5816 11.0046 15.5816C11.2654 15.5816 11.5232 15.5259 11.7608 15.4183L19.6258 11.8433C19.7881 11.7704 19.9256 11.6518 20.0217 11.5021C20.1177 11.3523 20.1681 11.1779 20.1667 11" stroke="var(--stroke-0, #7EE8F0)" stroke-width="1.83333" stroke-linecap="round" stroke-linejoin="round"/>
<path id="Vector_3" d="M1.83333 15.5833C1.8329 15.7587 1.88276 15.9304 1.97699 16.0783C2.07123 16.2261 2.20588 16.3439 2.365 16.4175L10.2483 20.0017C10.4859 20.1093 10.7438 20.1649 11.0046 20.1649C11.2654 20.1649 11.5232 20.1093 11.7608 20.0017L19.6258 16.4267C19.7881 16.3537 19.9256 16.2352 20.0217 16.0854C20.1177 15.9357 20.1681 15.7612 20.1667 15.5833" stroke="var(--stroke-0, #7EE8F0)" stroke-width="1.83333" stroke-linecap="round" stroke-linejoin="round"/>
</g>
<defs>
<clipPath id="clip0_0_705">
<rect width="22" height="22" fill="white"/>
</clipPath>
</defs>
</svg>
