<svg preserveAspectRatio="none" width="100%" height="100%" overflow="visible" style="display: block;" viewBox="0 0 13 13" fill="none" xmlns="http://www.w3.org/2000/svg">
<g id="Icon" clip-path="url(#clip0_0_686)">
<path id="Vector" d="M11.9167 6.5H10.5733C10.3366 6.49949 10.1062 6.57654 9.91744 6.71936C9.72865 6.86217 9.59183 7.0629 9.52792 7.29083L8.255 11.8192C8.2468 11.8473 8.22969 11.872 8.20625 11.8896C8.18281 11.9072 8.1543 11.9167 8.125 11.9167C8.0957 11.9167 8.06719 11.9072 8.04375 11.8896C8.02031 11.872 8.0032 11.8473 7.995 11.8192L5.005 1.18083C4.9968 1.15271 4.97969 1.128 4.95625 1.11042C4.93281 1.09284 4.9043 1.08333 4.875 1.08333C4.8457 1.08333 4.81719 1.09284 4.79375 1.11042C4.77031 1.128 4.7532 1.15271 4.745 1.18083L3.47208 5.70917C3.40842 5.93621 3.27241 6.13628 3.08472 6.27901C2.89702 6.42173 2.66788 6.49933 2.43208 6.5H1.08333" stroke="var(--stroke-0, #059669)" stroke-width="1.08333" stroke-linecap="round" stroke-linejoin="round"/>
</g>
<defs>
<clipPath id="clip0_0_686">
<rect width="13" height="13" fill="white"/>
</clipPath>
</defs>
</svg>
