<svg preserveAspectRatio="none" width="100%" height="100%" overflow="visible" style="display: block;" viewBox="0 0 13 13" fill="none" xmlns="http://www.w3.org/2000/svg">
<g id="Icon" clip-path="url(#clip0_0_688)">
<path id="Vector" d="M9.75 2.16667H3.25C2.65169 2.16667 2.16667 2.65169 2.16667 3.25V9.75C2.16667 10.3483 2.65169 10.8333 3.25 10.8333H9.75C10.3483 10.8333 10.8333 10.3483 10.8333 9.75V3.25C10.8333 2.65169 10.3483 2.16667 9.75 2.16667Z" stroke="var(--stroke-0, #6366F1)" stroke-width="1.08333" stroke-linecap="round" stroke-linejoin="round"/>
<path id="Vector_2" d="M7.58333 4.875H5.41667C5.11751 4.875 4.875 5.11751 4.875 5.41667V7.58333C4.875 7.88249 5.11751 8.125 5.41667 8.125H7.58333C7.88249 8.125 8.125 7.88249 8.125 7.58333V5.41667C8.125 5.11751 7.88249 4.875 7.58333 4.875Z" stroke="var(--stroke-0, #6366F1)" stroke-width="1.08333" stroke-linecap="round" stroke-linejoin="round"/>
<path id="Vector_3" d="M8.125 1.08333V2.16667" stroke="var(--stroke-0, #6366F1)" stroke-width="1.08333" stroke-linecap="round" stroke-linejoin="round"/>
<path id="Vector_4" d="M8.125 10.8333V11.9167" stroke="var(--stroke-0, #6366F1)" stroke-width="1.08333" stroke-linecap="round" stroke-linejoin="round"/>
<path id="Vector_5" d="M1.08333 8.125H2.16667" stroke="var(--stroke-0, #6366F1)" stroke-width="1.08333" stroke-linecap="round" stroke-linejoin="round"/>
<path id="Vector_6" d="M1.08333 4.875H2.16667" stroke="var(--stroke-0, #6366F1)" stroke-width="1.08333" stroke-linecap="round" stroke-linejoin="round"/>
<path id="Vector_7" d="M10.8333 8.125H11.9167" stroke="var(--stroke-0, #6366F1)" stroke-width="1.08333" stroke-linecap="round" stroke-linejoin="round"/>
<path id="Vector_8" d="M10.8333 4.875H11.9167" stroke="var(--stroke-0, #6366F1)" stroke-width="1.08333" stroke-linecap="round" stroke-linejoin="round"/>
<path id="Vector_9" d="M4.875 1.08333V2.16667" stroke="var(--stroke-0, #6366F1)" stroke-width="1.08333" stroke-linecap="round" stroke-linejoin="round"/>
<path id="Vector_10" d="M4.875 10.8333V11.9167" stroke="var(--stroke-0, #6366F1)" stroke-width="1.08333" stroke-linecap="round" stroke-linejoin="round"/>
</g>
<defs>
<clipPath id="clip0_0_688">
<rect width="13" height="13" fill="white"/>
</clipPath>
</defs>
</svg>
