<svg preserveAspectRatio="none" width="100%" height="100%" overflow="visible" style="display: block;" viewBox="0 0 13 13" fill="none" xmlns="http://www.w3.org/2000/svg">
<g id="Icon">
<path id="Vector" d="M8.66667 11.375V10.2917C8.66667 9.71703 8.43839 9.16593 8.03206 8.7596C7.62574 8.35327 7.07464 8.125 6.5 8.125H3.25C2.67536 8.125 2.12426 8.35327 1.71794 8.7596C1.31161 9.16593 1.08333 9.71703 1.08333 10.2917V11.375" stroke="var(--stroke-0, #1796A3)" stroke-width="1.08333" stroke-linecap="round" stroke-linejoin="round"/>
<path id="Vector_2" d="M4.875 5.95833C6.07162 5.95833 7.04167 4.98828 7.04167 3.79167C7.04167 2.59505 6.07162 1.625 4.875 1.625C3.67838 1.625 2.70833 2.59505 2.70833 3.79167C2.70833 4.98828 3.67838 5.95833 4.875 5.95833Z" stroke="var(--stroke-0, #1796A3)" stroke-width="1.08333" stroke-linecap="round" stroke-linejoin="round"/>
<path id="Vector_3" d="M11.9167 11.375V10.2917C11.9163 9.8116 11.7565 9.34525 11.4624 8.96584C11.1683 8.58642 10.7565 8.31543 10.2917 8.19542" stroke="var(--stroke-0, #1796A3)" stroke-width="1.08333" stroke-linecap="round" stroke-linejoin="round"/>
<path id="Vector_4" d="M8.66667 1.69542C9.13273 1.81475 9.54581 2.0858 9.8408 2.46583C10.1358 2.84587 10.2959 3.31328 10.2959 3.79437C10.2959 4.27547 10.1358 4.74288 9.8408 5.12291C9.54581 5.50295 9.13273 5.774 8.66667 5.89333" stroke="var(--stroke-0, #1796A3)" stroke-width="1.08333" stroke-linecap="round" stroke-linejoin="round"/>
</g>
</svg>
