<svg preserveAspectRatio="none" width="100%" height="100%" overflow="visible" style="display: block;" viewBox="0 0 11 11" fill="none" xmlns="http://www.w3.org/2000/svg">
<g id="Icon" clip-path="url(#clip0_0_732)">
<path id="Vector" d="M7.33333 9.625V8.70833C7.33333 8.2221 7.14018 7.75579 6.79636 7.41197C6.45255 7.06815 5.98623 6.875 5.5 6.875H2.75C2.26377 6.875 1.79745 7.06815 1.45364 7.41197C1.10982 7.75579 0.916667 8.2221 0.916667 8.70833V9.625" stroke="var(--stroke-0, #2CBCC8)" stroke-width="0.916667" stroke-linecap="round" stroke-linejoin="round"/>
<path id="Vector_2" d="M4.125 5.04167C5.13752 5.04167 5.95833 4.22086 5.95833 3.20833C5.95833 2.19581 5.13752 1.375 4.125 1.375C3.11248 1.375 2.29167 2.19581 2.29167 3.20833C2.29167 4.22086 3.11248 5.04167 4.125 5.04167Z" stroke="var(--stroke-0, #2CBCC8)" stroke-width="0.916667" stroke-linecap="round" stroke-linejoin="round"/>
<path id="Vector_3" d="M10.0833 9.625V8.70833C10.083 8.30213 9.94783 7.90752 9.69896 7.58648C9.45009 7.26543 9.10164 7.03614 8.70833 6.93458" stroke="var(--stroke-0, #2CBCC8)" stroke-width="0.916667" stroke-linecap="round" stroke-linejoin="round"/>
<path id="Vector_4" d="M7.33333 1.43458C7.72769 1.53555 8.07723 1.7649 8.32683 2.08648C8.57644 2.40805 8.71193 2.80355 8.71193 3.21063C8.71193 3.6177 8.57644 4.0132 8.32683 4.33477C8.07723 4.65635 7.72769 4.8857 7.33333 4.98667" stroke="var(--stroke-0, #2CBCC8)" stroke-width="0.916667" stroke-linecap="round" stroke-linejoin="round"/>
</g>
<defs>
<clipPath id="clip0_0_732">
<rect width="11" height="11" fill="white"/>
</clipPath>
</defs>
</svg>
