<svg preserveAspectRatio="none" width="100%" height="100%" overflow="visible" style="display: block;" viewBox="0 0 13 13" fill="none" xmlns="http://www.w3.org/2000/svg">
<g id="Icon">
<path id="Vector" d="M6.5 3.79167V11.375" stroke="var(--stroke-0, #2CBCC8)" stroke-width="1.08333" stroke-linecap="round" stroke-linejoin="round"/>
<path id="Vector_2" d="M1.625 9.75C1.48134 9.75 1.34357 9.69293 1.24198 9.59135C1.1404 9.48977 1.08333 9.35199 1.08333 9.20833V2.16667C1.08333 2.02301 1.1404 1.88523 1.24198 1.78365C1.34357 1.68207 1.48134 1.625 1.625 1.625H4.33333C4.90797 1.625 5.45907 1.85327 5.8654 2.2596C6.27173 2.66593 6.5 3.21703 6.5 3.79167C6.5 3.21703 6.72827 2.66593 7.1346 2.2596C7.54093 1.85327 8.09203 1.625 8.66667 1.625H11.375C11.5187 1.625 11.6564 1.68207 11.758 1.78365C11.8596 1.88523 11.9167 2.02301 11.9167 2.16667V9.20833C11.9167 9.35199 11.8596 9.48977 11.758 9.59135C11.6564 9.69293 11.5187 9.75 11.375 9.75H8.125C7.69402 9.75 7.2807 9.9212 6.97595 10.226C6.6712 10.5307 6.5 10.944 6.5 11.375C6.5 10.944 6.3288 10.5307 6.02405 10.226C5.7193 9.9212 5.30598 9.75 4.875 9.75H1.625Z" stroke="var(--stroke-0, #2CBCC8)" stroke-width="1.08333" stroke-linecap="round" stroke-linejoin="round"/>
</g>
</svg>
