<svg preserveAspectRatio="none" width="100%" height="100%" overflow="visible" style="display: block;" viewBox="0 0 24 24" fill="none" xmlns="http://www.w3.org/2000/svg">
<g id="material-symbols-light:female-rounded">
<path id="Vector" d="M11.5 18.5H10C9.858 18.5 9.73933 18.452 9.644 18.356C9.54867 18.26 9.50067 18.141 9.5 17.999C9.49933 17.857 9.54733 17.7383 9.644 17.643C9.74067 17.5477 9.85933 17.5 10 17.5H11.5V14.477C10.222 14.3337 9.15233 13.788 8.291 12.84C7.43033 11.8913 7 10.7743 7 9.489C7 8.10033 7.48633 6.92167 8.459 5.953C9.431 4.98433 10.6113 4.5 12 4.5C13.3887 4.5 14.569 4.98433 15.541 5.953C16.513 6.92167 16.9993 8.10033 17 9.489C17 10.7743 16.5697 11.891 15.709 12.839C14.8477 13.7877 13.778 14.3337 12.5 14.477V17.5H14C14.142 17.5 14.2607 17.548 14.356 17.644C14.4513 17.74 14.4993 17.859 14.5 18.001C14.5007 18.143 14.4527 18.2617 14.356 18.357C14.2593 18.4523 14.1407 18.5 14 18.5H12.5V20C12.5 20.142 12.452 20.2607 12.356 20.356C12.26 20.4513 12.141 20.4993 11.999 20.5C11.857 20.5007 11.7383 20.4527 11.643 20.356C11.5477 20.2593 11.5 20.1407 11.5 20V18.5ZM14.83 12.328C15.61 11.546 16 10.6023 16 9.497C16 8.39167 15.6093 7.449 14.828 6.669C14.0467 5.889 13.103 5.49933 11.997 5.5C10.891 5.50067 9.94833 5.89133 9.169 6.672C8.38967 7.45267 8 8.39633 8 9.503C8 10.6097 8.39067 11.5523 9.172 12.331C9.954 13.1103 10.8977 13.5 12.003 13.5C13.109 13.5 14.0517 13.1093 14.831 12.328" fill="var(--fill-0, #1A9AA5)"/>
</g>
</svg>
